<svg xmlns="http://www.w3.org/2000/svg" width="92.042" height="91.774" viewBox="0 0 92.042 91.774">
  <g id="bell" transform="translate(2.055 2)" fill="#ffba00">
    <path d="M 43.96624755859375 88.77429962158203 C 39.8763427734375 88.77429962158203 36.54896545410156 85.44692230224609 36.54896545410156 81.35701751708984 C 36.54896545410156 78.52660369873047 38.14468383789062 76.06160736083984 40.48427200317383 74.81330108642578 L -0.05499950051307678 74.81330108642578 L -1.054999470710754 74.81330108642578 L -1.054999470710754 73.81330108642578 L -1.054999470710754 69.74642944335938 L -1.054999470710754 69.28910827636719 L -0.7090583443641663 68.989990234375 L 16.2219066619873 54.35042190551758 L 16.2219066619873 31.42807579040527 C 16.23614120483398 28.19079399108887 16.80187034606934 25.02520561218262 17.90338897705078 22.01485252380371 C 18.96808242797852 19.10513496398926 20.50667190551758 16.40815734863281 22.47641181945801 13.99884033203125 C 24.42928314208984 11.61015796661377 26.74689483642578 9.575710296630859 29.36485862731934 7.952028274536133 C 31.80411338806152 6.439173221588135 34.44056701660156 5.323509693145752 37.21215438842773 4.630156517028809 L 37.21215438842773 4.819622972718207e-06 L 37.21215438842773 -0.9999951720237732 L 38.21215438842773 -0.9999951720237732 L 49.72034072875977 -0.9999951720237732 L 50.72034072875977 -0.9999951720237732 L 50.72034072875977 4.819622972718207e-06 L 50.72034072875977 4.627720832824707 C 53.49193572998047 5.321073532104492 56.12838363647461 6.436738014221191 58.56764602661133 7.949593067169189 C 61.18560028076172 9.573275566101074 63.50321197509766 11.60772228240967 65.45609283447266 13.99640464782715 C 67.42583465576172 16.40572166442871 68.96440887451172 19.10269927978516 70.02910614013672 22.01241683959961 C 71.13062286376953 25.02276992797852 71.69635009765625 28.18835830688477 71.71058654785156 31.42123985290527 L 71.71060180664062 54.3480224609375 L 88.64162445068359 68.99004364013672 L 88.98749542236328 69.28915405273438 L 88.98749542236328 69.74642944335938 L 88.98749542236328 73.81330108642578 L 88.98749542236328 74.81330108642578 L 87.98749542236328 74.81330108642578 L 47.44821548461914 74.81330108642578 C 49.78779983520508 76.06160736083984 51.38351821899414 78.52660369873047 51.38351821899414 81.35701751708984 C 51.38351821899414 85.44692230224609 48.0561408996582 88.77429962158203 43.96624755859375 88.77429962158203 Z" stroke="none"/>
    <path d="M 38.21215438842773 0 L 38.21215438842773 5.422492980957031 C 26.2455940246582 8.048416137695312 17.27798461914062 18.68617248535156 17.22191619873047 31.42807769775391 L 17.22191619873047 54.80773162841797 L -0.0550079345703125 69.74642944335938 L -0.0550079345703125 73.81330871582031 L 87.98748779296875 73.81330871582031 L 87.98748779296875 69.74642944335938 L 70.71059417724609 54.80529403686523 L 70.71059417724609 31.42564010620117 C 70.65451049804688 18.68373107910156 61.6869010925293 8.045982360839844 49.72034072875977 5.420066833496094 L 49.72034072875977 0 L 38.21215438842773 0 M 43.96624755859375 74.94461059570312 C 40.42358016967773 74.94461059570312 37.54896926879883 77.81434631347656 37.54896926879883 81.35700988769531 C 37.54896926879883 84.89968109130859 40.42358016967773 87.7742919921875 43.96624755859375 87.7742919921875 C 47.50891494750977 87.7742919921875 50.38352584838867 84.89968109130859 50.38352584838867 81.35700988769531 C 50.38352584838867 77.81434631347656 47.50891494750977 74.94461059570312 43.96624755859375 74.94461059570312 M 36.21215438842773 -2 L 51.72034072875977 -2 L 51.72034072875977 3.858100891113281 C 54.3160400390625 4.583404541015625 56.79016876220703 5.67047119140625 59.0947151184082 7.099769592285156 C 61.80666351318359 8.781745910644531 64.20740509033203 10.88916015625 66.23028564453125 13.36346435546875 C 68.27095031738281 15.85951995849609 69.86502075195312 18.65383911132812 70.96822357177734 21.66878509521484 C 72.109619140625 24.78815841674805 72.69583129882812 28.06786727905273 72.71057891845703 31.41683959960938 L 72.71059417724609 31.42564010620117 L 72.71059417724609 53.89074325561523 L 89.98748779296875 68.83187866210938 L 89.98748779296875 75.81330871582031 L 50.29228591918945 75.81330871582031 C 51.59371948242188 77.29476165771484 52.38352584838867 79.23532104492188 52.38352584838867 81.35700988769531 C 52.38352584838867 85.99832153320312 48.6075553894043 89.7742919921875 43.96624755859375 89.7742919921875 C 39.3249397277832 89.7742919921875 35.54896926879883 85.99832153320312 35.54896926879883 81.35700988769531 C 35.54896926879883 79.23532104492188 36.33877563476562 77.29476165771484 37.64020919799805 75.81330871582031 L -2.055007934570312 75.81330871582031 L -2.055007934570312 68.831787109375 L 15.22191619873047 53.89308166503906 L 15.221923828125 31.41928100585938 C 15.23667144775391 28.07032012939453 15.8228759765625 24.79059982299805 16.96428680419922 21.67122650146484 C 18.06747436523438 18.65628051757812 19.66153717041016 15.86196136474609 21.70220947265625 13.36590576171875 C 23.72509002685547 10.89158630371094 26.12583541870117 8.784172058105469 28.8377799987793 7.102195739746094 C 31.14232635498047 5.672897338867188 33.616455078125 4.585830688476562 36.21215438842773 3.860527038574219 L 36.21215438842773 -2 Z" stroke="none" fill="#000"/>
  </g>
</svg>
