<svg xmlns="http://www.w3.org/2000/svg" xmlns:xlink="http://www.w3.org/1999/xlink" width="180.563" height="272.102" viewBox="0 0 180.563 272.102">
  <defs>
    <clipPath id="clip-path">
      <rect id="Rectangle_1" data-name="Rectangle 1" width="180.563" height="272.102" fill="#fff"/>
    </clipPath>
  </defs>
  <g id="Group_1" data-name="Group 1" clip-path="url(#clip-path)">
    <g id="Group_6" data-name="Group 6">
      <path id="Path_1" data-name="Path 1" d="M58.976,39.4C73.618,33.628,84.5,23.61,88.777,13.325h0a9.355,9.355,0,1,0-17.194-.587c0,.011,0,.017,0,.029,1.338,3.217.5,6.106-1.122,8.662-4.5,6.8-12.166,12.953-21.837,16.767C37.3,42.66,25.8,42.9,17.33,39.642c10.131,5.628,25.975,5.939,41.646-.24" transform="translate(-2.211 0)" fill="#fff"/>
      <path id="Path_2" data-name="Path 2" d="M17.03,65.517v0a9.355,9.355,0,1,0-9.105,14.6c.011,0,.014.009.026.01,3.455.449,5.536,2.624,6.941,5.3,3.64,7.3,5.135,17.011,3.6,27.293-1.8,12.039-7.333,22.118-14.4,27.826,9.94-5.959,18.132-19.526,20.615-36.187,2.321-15.566-.911-30-7.682-38.847" transform="translate(0 -7.85)" fill="#fff"/>
      <path id="Path_3" data-name="Path 3" d="M60.846,172.4c-12.321-9.793-26.44-14.212-37.484-12.77l0,0a9.355,9.355,0,1,0,8.089,15.183c.008-.009.016-.007.023-.017,2.117-2.767,5.042-3.483,8.064-3.359,8.142.5,17.3,4.059,25.436,10.528,9.529,7.574,15.488,17.409,16.9,26.379-.192-11.588-7.845-25.465-21.031-35.947" transform="translate(-1.89 -20.336)" fill="#fff"/>
      <path id="Path_4" data-name="Path 4" d="M137.419,172.171c-14.642,5.773-25.528,15.791-29.8,26.077h0a9.355,9.355,0,1,0,17.194.586c0-.01,0-.017,0-.028-1.338-3.217-.5-6.107,1.122-8.663,4.5-6.8,12.165-12.952,21.837-16.766,11.324-4.465,22.821-4.708,31.3-1.446-10.131-5.628-25.975-5.939-41.646.24" transform="translate(-13.62 -21.39)" fill="#fff"/>
      <path id="Path_5" data-name="Path 5" d="M195.328,126.324c-.011,0-.014-.009-.027-.01-3.454-.45-5.535-2.624-6.94-5.3-3.64-7.3-5.135-17.012-3.6-27.294,1.8-12.04,7.333-22.118,14.4-27.826-9.939,5.959-18.131,19.526-20.615,36.186-2.321,15.567.912,30,7.682,38.847l0,0a9.355,9.355,0,1,0,9.105-14.6" transform="translate(-22.688 -8.408)" fill="#fff"/>
      <path id="Path_6" data-name="Path 6" d="M136.319,38.432c12.321,9.793,26.44,14.212,37.484,12.77l0,0a9.355,9.355,0,1,0-8.089-15.184c-.008.01-.016.008-.023.018-2.117,2.766-5.041,3.482-8.064,3.359-8.142-.5-17.3-4.059-25.437-10.528-9.529-7.574-15.488-17.409-16.9-26.379.192,11.588,7.845,25.465,21.031,35.947" transform="translate(-14.712 -0.317)" fill="#fff"/>
      <path id="Path_7" data-name="Path 7" d="M94.374,74.156a7.987,7.987,0,1,0,8.769-7.12,7.986,7.986,0,0,0-8.769,7.12" transform="translate(-12.037 -8.549)" fill="#fff"/>
      <path id="Path_8" data-name="Path 8" d="M131.7,137.979h17.568c-13.557,0-18.892-13.236-18.892-27.739v-6.1H117.152v6.1c0,12.42,1.8,27.739,14.545,27.739" transform="translate(-14.95 -13.289)" fill="#fff"/>
      <path id="Path_9" data-name="Path 9" d="M53.012,137.979H70.58c12.749,0,14.545-15.318,14.545-27.739v-6.1H71.9v6.1c0,14.5-5.334,27.739-18.892,27.739" transform="translate(-6.765 -13.289)" fill="#fff"/>
      <path id="Path_10" data-name="Path 10" d="M124.953,86.852h-.009a5.7,5.7,0,0,1-5.437,5.193H80.114a5.7,5.7,0,0,1-5.438-5.193h-.009v8.133h50.285Z" transform="translate(-9.528 -11.083)" fill="#fff"/>
      <path id="Path_11" data-name="Path 11" d="M58.976,39.4C73.618,33.628,84.5,23.61,88.777,13.325h0a9.355,9.355,0,1,0-17.194-.587c0,.011,0,.017,0,.029,1.338,3.217.5,6.106-1.122,8.662-4.5,6.8-12.166,12.953-21.837,16.767C37.3,42.66,25.8,42.9,17.33,39.642c10.131,5.628,25.975,5.939,41.646-.24" transform="translate(-2.211 0)" fill="#fff"/>
      <path id="Path_12" data-name="Path 12" d="M17.03,65.517v0a9.355,9.355,0,1,0-9.105,14.6c.011,0,.014.009.026.01,3.455.449,5.536,2.624,6.941,5.3,3.64,7.3,5.135,17.011,3.6,27.293-1.8,12.039-7.333,22.118-14.4,27.826,9.94-5.959,18.132-19.526,20.615-36.187,2.321-15.566-.911-30-7.682-38.847" transform="translate(0 -7.85)" fill="#fff"/>
      <path id="Path_13" data-name="Path 13" d="M60.846,172.4c-12.321-9.793-26.44-14.212-37.484-12.77l0,0a9.355,9.355,0,1,0,8.089,15.183c.008-.009.016-.007.023-.017,2.117-2.767,5.042-3.483,8.064-3.359,8.142.5,17.3,4.059,25.436,10.528,9.529,7.574,15.488,17.409,16.9,26.379-.192-11.588-7.845-25.465-21.031-35.947" transform="translate(-1.89 -20.336)" fill="#fff"/>
      <path id="Path_14" data-name="Path 14" d="M137.419,172.171c-14.642,5.773-25.528,15.791-29.8,26.077h0a9.355,9.355,0,1,0,17.194.586c0-.01,0-.017,0-.028-1.338-3.217-.5-6.107,1.122-8.663,4.5-6.8,12.165-12.952,21.837-16.766,11.324-4.465,22.821-4.708,31.3-1.446-10.131-5.628-25.975-5.939-41.646.24" transform="translate(-13.62 -21.39)" fill="#fff"/>
      <path id="Path_15" data-name="Path 15" d="M195.328,126.324c-.011,0-.014-.009-.027-.01-3.454-.45-5.535-2.624-6.94-5.3-3.64-7.3-5.135-17.012-3.6-27.294,1.8-12.04,7.333-22.118,14.4-27.826-9.939,5.959-18.131,19.526-20.615,36.186-2.321,15.567.912,30,7.682,38.847l0,0a9.355,9.355,0,1,0,9.105-14.6" transform="translate(-22.688 -8.408)" fill="#fff"/>
      <path id="Path_16" data-name="Path 16" d="M136.319,38.432c12.321,9.793,26.44,14.212,37.484,12.77l0,0a9.355,9.355,0,1,0-8.089-15.184c-.008.01-.016.008-.023.018-2.117,2.766-5.041,3.482-8.064,3.359-8.142-.5-17.3-4.059-25.437-10.528-9.529-7.574-15.488-17.409-16.9-26.379.192,11.588,7.845,25.465,21.031,35.947" transform="translate(-14.712 -0.317)" fill="#fff"/>
      <path id="Path_17" data-name="Path 17" d="M94.374,74.156a7.987,7.987,0,1,0,8.769-7.12,7.986,7.986,0,0,0-8.769,7.12" transform="translate(-12.037 -8.549)" fill="#fff"/>
      <path id="Path_18" data-name="Path 18" d="M131.7,137.979h17.568c-13.557,0-18.892-13.236-18.892-27.739v-6.1H117.152v6.1c0,12.42,1.8,27.739,14.545,27.739" transform="translate(-14.95 -13.289)" fill="#fff"/>
      <path id="Path_19" data-name="Path 19" d="M53.012,137.979H70.58c12.749,0,14.545-15.318,14.545-27.739v-6.1H71.9v6.1c0,14.5-5.334,27.739-18.892,27.739" transform="translate(-6.765 -13.289)" fill="#fff"/>
      <path id="Path_20" data-name="Path 20" d="M124.953,86.852h-.009a5.7,5.7,0,0,1-5.437,5.193H80.114a5.7,5.7,0,0,1-5.438-5.193h-.009v8.133h50.285Z" transform="translate(-9.528 -11.083)" fill="#fff"/>
    </g>
    <path id="Path_21" data-name="Path 21" d="M51.4,252.546H58.9a6.883,6.883,0,0,1,4.961,1.746,4.821,4.821,0,0,1,1.346,3.442v.05c0,2.892-1.994,4.588-4.736,5.086L65.835,270H63.416l-5.062-6.782H53.368V270H51.4Zm7.331,8.9c2.618,0,4.488-1.346,4.488-3.59v-.051c0-2.144-1.645-3.441-4.463-3.441H53.368v7.081Z" transform="translate(-6.559 -32.227)" fill="#fff"/>
    <path id="Path_22" data-name="Path 22" d="M78.9,261.28v-.05a8.9,8.9,0,1,1,17.8-.05v.05a8.9,8.9,0,1,1-17.8.05m15.757,0v-.05a6.939,6.939,0,0,0-6.881-7.206,6.856,6.856,0,0,0-6.832,7.156v.05a6.94,6.94,0,0,0,6.881,7.206,6.856,6.856,0,0,0,6.832-7.156" transform="translate(-10.069 -32.183)" fill="#fff"/>
    <path id="Path_23" data-name="Path 23" d="M112.088,252.546h1.97v10.422l10.024-10.422h2.542l-7.479,7.63,7.8,9.824H124.48l-6.707-8.453-3.715,3.764V270h-1.97Z" transform="translate(-14.303 -32.227)" fill="#fff"/>
    <path id="Path_24" data-name="Path 24" d="M141.184,262.695V252.547h1.969V262.57c0,3.765,2.02,5.884,5.336,5.884,3.217,0,5.262-1.945,5.262-5.76V252.547h1.968v10c0,5.086-2.916,7.729-7.28,7.729-4.314,0-7.255-2.643-7.255-7.58" transform="translate(-18.016 -32.227)" fill="#fff"/>
    <path id="Path_25" data-name="Path 25" d="M38.066,306.456l1.222-1.446a8.309,8.309,0,0,0,5.984,2.469c2.344,0,3.89-1.247,3.89-2.967v-.051c0-1.62-.872-2.543-4.538-3.316-4.014-.872-5.86-2.169-5.86-5.036v-.05c0-2.743,2.419-4.762,5.734-4.762a9.108,9.108,0,0,1,6.135,2.144l-1.147,1.521a7.664,7.664,0,0,0-5.036-1.895c-2.27,0-3.716,1.247-3.716,2.818v.05c0,1.645.9,2.568,4.737,3.391,3.89.847,5.685,2.269,5.685,4.937v.05c0,2.992-2.493,4.937-5.959,4.937a10.212,10.212,0,0,1-7.131-2.793" transform="translate(-4.858 -37.172)" fill="#fff"/>
    <path id="Path_26" data-name="Path 26" d="M70.776,291.439H72.62l7.954,17.578h-2.12L76.41,304.4h-9.5l-2.069,4.613h-2.02Zm4.862,11.17-3.964-8.877-3.99,8.877Z" transform="translate(-8.017 -37.19)" fill="#fff"/>
    <path id="Path_27" data-name="Path 27" d="M93.375,301.73V291.581h1.97V301.6c0,3.765,2.02,5.884,5.336,5.884,3.217,0,5.261-1.945,5.261-5.76V291.581h1.969v10c0,5.087-2.916,7.73-7.28,7.73-4.314,0-7.256-2.643-7.256-7.58" transform="translate(-11.915 -37.208)" fill="#fff"/>
    <path id="Path_28" data-name="Path 28" d="M123.667,291.582h1.845l11,13.988V291.582h1.919v17.454h-1.571l-11.27-14.312v14.312h-1.919Z" transform="translate(-15.781 -37.208)" fill="#fff"/>
    <path id="Path_29" data-name="Path 29" d="M158.783,291.439h1.845l7.954,17.578h-2.12l-2.044-4.613h-9.5l-2.069,4.613h-2.02Zm4.862,11.17-3.964-8.877-3.989,8.877Z" transform="translate(-19.247 -37.19)" fill="#fff"/>
  </g>
</svg>
