<svg xmlns="http://www.w3.org/2000/svg" width="64.791" height="64.788" viewBox="0 0 64.791 64.788">
  <g id="telephone-fill" transform="translate(12.929) rotate(14)">
    <path id="Path_30" data-name="Path 30" d="M6.3,1.708a5.829,5.829,0,0,1,8.722.542l5.989,7.7a5.813,5.813,0,0,1,1.055,4.988l-1.827,7.314a2.266,2.266,0,0,0,.6,2.152l8.209,8.206a2.266,2.266,0,0,0,2.152.6L38.5,31.38A5.829,5.829,0,0,1,43.5,32.435l7.7,5.989a5.828,5.828,0,0,1,.545,8.722L48.286,50.6a9.284,9.284,0,0,1-9.609,2.345A62.245,62.245,0,0,1,15.264,38.183,62.245,62.245,0,0,1,.5,14.77,9.287,9.287,0,0,1,2.842,5.157L6.3,1.7Z" transform="translate(0 0)" fill="#fff" fill-rule="evenodd"/>
  </g>
</svg>
